%TF.GenerationSoftware,KiCad,Pcbnew,(6.0.7)*%
%TF.CreationDate,2022-09-25T18:52:35-04:00*%
%TF.ProjectId,RD01_circuito_impreso,52443031-5f63-4697-9263-7569746f5f69,rev?*%
%TF.SameCoordinates,Original*%
%TF.FileFunction,Legend,Top*%
%TF.FilePolarity,Positive*%
%FSLAX46Y46*%
G04 Gerber Fmt 4.6, Leading zero omitted, Abs format (unit mm)*
G04 Created by KiCad (PCBNEW (6.0.7)) date 2022-09-25 18:52:35*
%MOMM*%
%LPD*%
G01*
G04 APERTURE LIST*
%ADD10C,0.125000*%
%ADD11C,0.120000*%
G04 APERTURE END LIST*
D10*
%TO.C,R3*%
X135481190Y-68746666D02*
X135243095Y-69080000D01*
X135481190Y-69318095D02*
X134981190Y-69318095D01*
X134981190Y-68937142D01*
X135005000Y-68841904D01*
X135028809Y-68794285D01*
X135076428Y-68746666D01*
X135147857Y-68746666D01*
X135195476Y-68794285D01*
X135219285Y-68841904D01*
X135243095Y-68937142D01*
X135243095Y-69318095D01*
X134981190Y-68413333D02*
X134981190Y-67794285D01*
X135171666Y-68127619D01*
X135171666Y-67984761D01*
X135195476Y-67889523D01*
X135219285Y-67841904D01*
X135266904Y-67794285D01*
X135385952Y-67794285D01*
X135433571Y-67841904D01*
X135457380Y-67889523D01*
X135481190Y-67984761D01*
X135481190Y-68270476D01*
X135457380Y-68365714D01*
X135433571Y-68413333D01*
%TO.C,R1*%
X119213333Y-65631190D02*
X118880000Y-65393095D01*
X118641904Y-65631190D02*
X118641904Y-65131190D01*
X119022857Y-65131190D01*
X119118095Y-65155000D01*
X119165714Y-65178809D01*
X119213333Y-65226428D01*
X119213333Y-65297857D01*
X119165714Y-65345476D01*
X119118095Y-65369285D01*
X119022857Y-65393095D01*
X118641904Y-65393095D01*
X120165714Y-65631190D02*
X119594285Y-65631190D01*
X119880000Y-65631190D02*
X119880000Y-65131190D01*
X119784761Y-65202619D01*
X119689523Y-65250238D01*
X119594285Y-65274047D01*
%TO.C,R2*%
X126198333Y-66901190D02*
X125865000Y-66663095D01*
X125626904Y-66901190D02*
X125626904Y-66401190D01*
X126007857Y-66401190D01*
X126103095Y-66425000D01*
X126150714Y-66448809D01*
X126198333Y-66496428D01*
X126198333Y-66567857D01*
X126150714Y-66615476D01*
X126103095Y-66639285D01*
X126007857Y-66663095D01*
X125626904Y-66663095D01*
X126579285Y-66448809D02*
X126626904Y-66425000D01*
X126722142Y-66401190D01*
X126960238Y-66401190D01*
X127055476Y-66425000D01*
X127103095Y-66448809D01*
X127150714Y-66496428D01*
X127150714Y-66544047D01*
X127103095Y-66615476D01*
X126531666Y-66901190D01*
X127150714Y-66901190D01*
%TO.C,R5*%
X140096190Y-69381666D02*
X139858095Y-69715000D01*
X140096190Y-69953095D02*
X139596190Y-69953095D01*
X139596190Y-69572142D01*
X139620000Y-69476904D01*
X139643809Y-69429285D01*
X139691428Y-69381666D01*
X139762857Y-69381666D01*
X139810476Y-69429285D01*
X139834285Y-69476904D01*
X139858095Y-69572142D01*
X139858095Y-69953095D01*
X139596190Y-68476904D02*
X139596190Y-68953095D01*
X139834285Y-69000714D01*
X139810476Y-68953095D01*
X139786666Y-68857857D01*
X139786666Y-68619761D01*
X139810476Y-68524523D01*
X139834285Y-68476904D01*
X139881904Y-68429285D01*
X140000952Y-68429285D01*
X140048571Y-68476904D01*
X140072380Y-68524523D01*
X140096190Y-68619761D01*
X140096190Y-68857857D01*
X140072380Y-68953095D01*
X140048571Y-69000714D01*
%TO.C,P5*%
X145311904Y-66901190D02*
X145311904Y-66401190D01*
X145692857Y-66401190D01*
X145788095Y-66425000D01*
X145835714Y-66448809D01*
X145883333Y-66496428D01*
X145883333Y-66567857D01*
X145835714Y-66615476D01*
X145788095Y-66639285D01*
X145692857Y-66663095D01*
X145311904Y-66663095D01*
X146788095Y-66401190D02*
X146311904Y-66401190D01*
X146264285Y-66639285D01*
X146311904Y-66615476D01*
X146407142Y-66591666D01*
X146645238Y-66591666D01*
X146740476Y-66615476D01*
X146788095Y-66639285D01*
X146835714Y-66686904D01*
X146835714Y-66805952D01*
X146788095Y-66853571D01*
X146740476Y-66877380D01*
X146645238Y-66901190D01*
X146407142Y-66901190D01*
X146311904Y-66877380D01*
X146264285Y-66853571D01*
%TO.C,Q1*%
X137699761Y-62503809D02*
X137604523Y-62480000D01*
X137509285Y-62432380D01*
X137366428Y-62360952D01*
X137271190Y-62337142D01*
X137175952Y-62337142D01*
X137223571Y-62456190D02*
X137128333Y-62432380D01*
X137033095Y-62384761D01*
X136985476Y-62289523D01*
X136985476Y-62122857D01*
X137033095Y-62027619D01*
X137128333Y-61980000D01*
X137223571Y-61956190D01*
X137414047Y-61956190D01*
X137509285Y-61980000D01*
X137604523Y-62027619D01*
X137652142Y-62122857D01*
X137652142Y-62289523D01*
X137604523Y-62384761D01*
X137509285Y-62432380D01*
X137414047Y-62456190D01*
X137223571Y-62456190D01*
X138604523Y-62456190D02*
X138033095Y-62456190D01*
X138318809Y-62456190D02*
X138318809Y-61956190D01*
X138223571Y-62027619D01*
X138128333Y-62075238D01*
X138033095Y-62099047D01*
%TO.C,P6*%
X145311904Y-71981190D02*
X145311904Y-71481190D01*
X145692857Y-71481190D01*
X145788095Y-71505000D01*
X145835714Y-71528809D01*
X145883333Y-71576428D01*
X145883333Y-71647857D01*
X145835714Y-71695476D01*
X145788095Y-71719285D01*
X145692857Y-71743095D01*
X145311904Y-71743095D01*
X146740476Y-71481190D02*
X146550000Y-71481190D01*
X146454761Y-71505000D01*
X146407142Y-71528809D01*
X146311904Y-71600238D01*
X146264285Y-71695476D01*
X146264285Y-71885952D01*
X146311904Y-71933571D01*
X146359523Y-71957380D01*
X146454761Y-71981190D01*
X146645238Y-71981190D01*
X146740476Y-71957380D01*
X146788095Y-71933571D01*
X146835714Y-71885952D01*
X146835714Y-71766904D01*
X146788095Y-71719285D01*
X146740476Y-71695476D01*
X146645238Y-71671666D01*
X146454761Y-71671666D01*
X146359523Y-71695476D01*
X146311904Y-71719285D01*
X146264285Y-71766904D01*
%TO.C,P3*%
X115466904Y-71981190D02*
X115466904Y-71481190D01*
X115847857Y-71481190D01*
X115943095Y-71505000D01*
X115990714Y-71528809D01*
X116038333Y-71576428D01*
X116038333Y-71647857D01*
X115990714Y-71695476D01*
X115943095Y-71719285D01*
X115847857Y-71743095D01*
X115466904Y-71743095D01*
X116371666Y-71481190D02*
X116990714Y-71481190D01*
X116657380Y-71671666D01*
X116800238Y-71671666D01*
X116895476Y-71695476D01*
X116943095Y-71719285D01*
X116990714Y-71766904D01*
X116990714Y-71885952D01*
X116943095Y-71933571D01*
X116895476Y-71957380D01*
X116800238Y-71981190D01*
X116514523Y-71981190D01*
X116419285Y-71957380D01*
X116371666Y-71933571D01*
%TO.C,P2*%
X145311904Y-65631190D02*
X145311904Y-65131190D01*
X145692857Y-65131190D01*
X145788095Y-65155000D01*
X145835714Y-65178809D01*
X145883333Y-65226428D01*
X145883333Y-65297857D01*
X145835714Y-65345476D01*
X145788095Y-65369285D01*
X145692857Y-65393095D01*
X145311904Y-65393095D01*
X146264285Y-65178809D02*
X146311904Y-65155000D01*
X146407142Y-65131190D01*
X146645238Y-65131190D01*
X146740476Y-65155000D01*
X146788095Y-65178809D01*
X146835714Y-65226428D01*
X146835714Y-65274047D01*
X146788095Y-65345476D01*
X146216666Y-65631190D01*
X146835714Y-65631190D01*
%TO.C,R4*%
X121023333Y-71981190D02*
X120690000Y-71743095D01*
X120451904Y-71981190D02*
X120451904Y-71481190D01*
X120832857Y-71481190D01*
X120928095Y-71505000D01*
X120975714Y-71528809D01*
X121023333Y-71576428D01*
X121023333Y-71647857D01*
X120975714Y-71695476D01*
X120928095Y-71719285D01*
X120832857Y-71743095D01*
X120451904Y-71743095D01*
X121880476Y-71647857D02*
X121880476Y-71981190D01*
X121642380Y-71457380D02*
X121404285Y-71814523D01*
X122023333Y-71814523D01*
%TO.C,P1*%
X115466904Y-65631190D02*
X115466904Y-65131190D01*
X115847857Y-65131190D01*
X115943095Y-65155000D01*
X115990714Y-65178809D01*
X116038333Y-65226428D01*
X116038333Y-65297857D01*
X115990714Y-65345476D01*
X115943095Y-65369285D01*
X115847857Y-65393095D01*
X115466904Y-65393095D01*
X116990714Y-65631190D02*
X116419285Y-65631190D01*
X116705000Y-65631190D02*
X116705000Y-65131190D01*
X116609761Y-65202619D01*
X116514523Y-65250238D01*
X116419285Y-65274047D01*
%TO.C,P4*%
X115466904Y-66808190D02*
X115466904Y-66308190D01*
X115847857Y-66308190D01*
X115943095Y-66332000D01*
X115990714Y-66355809D01*
X116038333Y-66403428D01*
X116038333Y-66474857D01*
X115990714Y-66522476D01*
X115943095Y-66546285D01*
X115847857Y-66570095D01*
X115466904Y-66570095D01*
X116895476Y-66474857D02*
X116895476Y-66808190D01*
X116657380Y-66284380D02*
X116419285Y-66641523D01*
X117038333Y-66641523D01*
%TO.C,Q2*%
X137699761Y-75203809D02*
X137604523Y-75180000D01*
X137509285Y-75132380D01*
X137366428Y-75060952D01*
X137271190Y-75037142D01*
X137175952Y-75037142D01*
X137223571Y-75156190D02*
X137128333Y-75132380D01*
X137033095Y-75084761D01*
X136985476Y-74989523D01*
X136985476Y-74822857D01*
X137033095Y-74727619D01*
X137128333Y-74680000D01*
X137223571Y-74656190D01*
X137414047Y-74656190D01*
X137509285Y-74680000D01*
X137604523Y-74727619D01*
X137652142Y-74822857D01*
X137652142Y-74989523D01*
X137604523Y-75084761D01*
X137509285Y-75132380D01*
X137414047Y-75156190D01*
X137223571Y-75156190D01*
X138033095Y-74703809D02*
X138080714Y-74680000D01*
X138175952Y-74656190D01*
X138414047Y-74656190D01*
X138509285Y-74680000D01*
X138556904Y-74703809D01*
X138604523Y-74751428D01*
X138604523Y-74799047D01*
X138556904Y-74870476D01*
X137985476Y-75156190D01*
X138604523Y-75156190D01*
D11*
%TO.C,R3*%
X134720000Y-72485000D02*
X134720000Y-65945000D01*
X134720000Y-65945000D02*
X131980000Y-65945000D01*
X133350000Y-73255000D02*
X133350000Y-72485000D01*
X131980000Y-65945000D02*
X131980000Y-72485000D01*
X131980000Y-72485000D02*
X134720000Y-72485000D01*
X133350000Y-65175000D02*
X133350000Y-65945000D01*
%TO.C,R1*%
X121190000Y-64870000D02*
X127730000Y-64870000D01*
X120420000Y-63500000D02*
X121190000Y-63500000D01*
X121190000Y-62130000D02*
X121190000Y-64870000D01*
X128500000Y-63500000D02*
X127730000Y-63500000D01*
X127730000Y-62130000D02*
X121190000Y-62130000D01*
X127730000Y-64870000D02*
X127730000Y-62130000D01*
%TO.C,R2*%
X127730000Y-67210000D02*
X121190000Y-67210000D01*
X128500000Y-68580000D02*
X127730000Y-68580000D01*
X121190000Y-67210000D02*
X121190000Y-69950000D01*
X127730000Y-69950000D02*
X127730000Y-67210000D01*
X121190000Y-69950000D02*
X127730000Y-69950000D01*
X120420000Y-68580000D02*
X121190000Y-68580000D01*
%TO.C,R5*%
X142240000Y-63905000D02*
X142240000Y-64675000D01*
X142240000Y-71985000D02*
X142240000Y-71215000D01*
X143610000Y-64675000D02*
X140870000Y-64675000D01*
X140870000Y-64675000D02*
X140870000Y-71215000D01*
X143610000Y-71215000D02*
X143610000Y-64675000D01*
X140870000Y-71215000D02*
X143610000Y-71215000D01*
%TO.C,P5*%
X147250000Y-69780000D02*
X144850000Y-69780000D01*
X147250000Y-67380000D02*
X147250000Y-69780000D01*
X144850000Y-67380000D02*
X147250000Y-67380000D01*
X144850000Y-69780000D02*
X144850000Y-67380000D01*
%TO.C,Q1*%
X137795000Y-63210000D02*
X137145000Y-63210000D01*
X137795000Y-66330000D02*
X139470000Y-66330000D01*
X137795000Y-63210000D02*
X138445000Y-63210000D01*
X137795000Y-66330000D02*
X137145000Y-66330000D01*
%TO.C,P6*%
X144850000Y-72460000D02*
X147250000Y-72460000D01*
X144850000Y-74860000D02*
X144850000Y-72460000D01*
X147250000Y-74860000D02*
X144850000Y-74860000D01*
X147250000Y-72460000D02*
X147250000Y-74860000D01*
%TO.C,P3*%
X115005000Y-74860000D02*
X115005000Y-72460000D01*
X115005000Y-72460000D02*
X117405000Y-72460000D01*
X117405000Y-72460000D02*
X117405000Y-74860000D01*
X117405000Y-74860000D02*
X115005000Y-74860000D01*
%TO.C,P2*%
X147250000Y-64700000D02*
X144850000Y-64700000D01*
X147250000Y-62300000D02*
X147250000Y-64700000D01*
X144850000Y-62300000D02*
X147250000Y-62300000D01*
X144850000Y-64700000D02*
X144850000Y-62300000D01*
%TO.C,R4*%
X127730000Y-75030000D02*
X127730000Y-72290000D01*
X121190000Y-75030000D02*
X127730000Y-75030000D01*
X121190000Y-72290000D02*
X121190000Y-75030000D01*
X128500000Y-73660000D02*
X127730000Y-73660000D01*
X120420000Y-73660000D02*
X121190000Y-73660000D01*
X127730000Y-72290000D02*
X121190000Y-72290000D01*
%TO.C,P1*%
X115005000Y-62300000D02*
X117405000Y-62300000D01*
X115005000Y-64700000D02*
X115005000Y-62300000D01*
X117405000Y-62300000D02*
X117405000Y-64700000D01*
X117405000Y-64700000D02*
X115005000Y-64700000D01*
%TO.C,P4*%
X117405000Y-69780000D02*
X115005000Y-69780000D01*
X117405000Y-67380000D02*
X117405000Y-69780000D01*
X115005000Y-67380000D02*
X117405000Y-67380000D01*
X115005000Y-69780000D02*
X115005000Y-67380000D01*
%TO.C,Q2*%
X137795000Y-70830000D02*
X136120000Y-70830000D01*
X137795000Y-70830000D02*
X138445000Y-70830000D01*
X137795000Y-73950000D02*
X138445000Y-73950000D01*
X137795000Y-73950000D02*
X137145000Y-73950000D01*
%TD*%
M02*
