%TF.GenerationSoftware,KiCad,Pcbnew,(6.0.7)*%
%TF.CreationDate,2022-11-25T17:42:58-03:00*%
%TF.ProjectId,RD01_2,52443031-5f32-42e6-9b69-6361645f7063,rev?*%
%TF.SameCoordinates,Original*%
%TF.FileFunction,Copper,L1,Top*%
%TF.FilePolarity,Positive*%
%FSLAX46Y46*%
G04 Gerber Fmt 4.6, Leading zero omitted, Abs format (unit mm)*
G04 Created by KiCad (PCBNEW (6.0.7)) date 2022-11-25 17:42:58*
%MOMM*%
%LPD*%
G01*
G04 APERTURE LIST*
G04 Aperture macros list*
%AMRoundRect*
0 Rectangle with rounded corners*
0 $1 Rounding radius*
0 $2 $3 $4 $5 $6 $7 $8 $9 X,Y pos of 4 corners*
0 Add a 4 corners polygon primitive as box body*
4,1,4,$2,$3,$4,$5,$6,$7,$8,$9,$2,$3,0*
0 Add four circle primitives for the rounded corners*
1,1,$1+$1,$2,$3*
1,1,$1+$1,$4,$5*
1,1,$1+$1,$6,$7*
1,1,$1+$1,$8,$9*
0 Add four rect primitives between the rounded corners*
20,1,$1+$1,$2,$3,$4,$5,0*
20,1,$1+$1,$4,$5,$6,$7,0*
20,1,$1+$1,$6,$7,$8,$9,0*
20,1,$1+$1,$8,$9,$2,$3,0*%
G04 Aperture macros list end*
%TA.AperFunction,SMDPad,CuDef*%
%ADD10RoundRect,0.150000X0.587500X0.150000X-0.587500X0.150000X-0.587500X-0.150000X0.587500X-0.150000X0*%
%TD*%
%TA.AperFunction,SMDPad,CuDef*%
%ADD11R,2.000000X2.000000*%
%TD*%
%TA.AperFunction,SMDPad,CuDef*%
%ADD12RoundRect,0.150000X-0.587500X-0.150000X0.587500X-0.150000X0.587500X0.150000X-0.587500X0.150000X0*%
%TD*%
%TA.AperFunction,SMDPad,CuDef*%
%ADD13RoundRect,0.250000X-0.400000X-0.625000X0.400000X-0.625000X0.400000X0.625000X-0.400000X0.625000X0*%
%TD*%
%TA.AperFunction,ComponentPad*%
%ADD14O,3.048000X1.850000*%
%TD*%
%TA.AperFunction,SMDPad,CuDef*%
%ADD15RoundRect,0.250000X-0.625000X0.400000X-0.625000X-0.400000X0.625000X-0.400000X0.625000X0.400000X0*%
%TD*%
%TA.AperFunction,SMDPad,CuDef*%
%ADD16RoundRect,0.250000X0.625000X-0.400000X0.625000X0.400000X-0.625000X0.400000X-0.625000X-0.400000X0*%
%TD*%
%TA.AperFunction,Conductor*%
%ADD17C,0.500000*%
%TD*%
G04 APERTURE END LIST*
D10*
%TO.P,Q1,1,B*%
%TO.N,Net-(R1-Pad2)*%
X116287500Y-47980000D03*
%TO.P,Q1,2,E*%
%TO.N,Net-(P2-Pad1)*%
X116287500Y-46080000D03*
%TO.P,Q1,3,C*%
%TO.N,Net-(Q2-Pad1)*%
X114412500Y-47030000D03*
%TD*%
D11*
%TO.P,P5,1,1*%
%TO.N,Net-(P5-Pad1)*%
X160870000Y-50870000D03*
%TD*%
D12*
%TO.P,Q2,3,D*%
%TO.N,Net-(P3-Pad1)*%
X116207500Y-54620000D03*
%TO.P,Q2,2,S*%
%TO.N,Net-(P4-Pad1)*%
X114332500Y-55570000D03*
%TO.P,Q2,1,G*%
%TO.N,Net-(Q2-Pad1)*%
X114332500Y-53670000D03*
%TD*%
D13*
%TO.P,R1,2*%
%TO.N,Net-(R1-Pad2)*%
X124800000Y-48120000D03*
%TO.P,R1,1*%
%TO.N,Net-(P1-Pad1)*%
X121700000Y-48120000D03*
%TD*%
%TO.P,R2,2*%
%TO.N,Net-(P2-Pad1)*%
X141230000Y-48270000D03*
%TO.P,R2,1*%
%TO.N,Net-(R1-Pad2)*%
X138130000Y-48270000D03*
%TD*%
%TO.P,R4,2*%
%TO.N,Net-(P4-Pad1)*%
X142430000Y-53890000D03*
%TO.P,R4,1*%
%TO.N,Net-(Q2-Pad1)*%
X139330000Y-53890000D03*
%TD*%
D11*
%TO.P,P3,1,1*%
%TO.N,Net-(P3-Pad1)*%
X123680000Y-54590000D03*
%TD*%
D14*
%TO.P,SW1,1,1*%
%TO.N,Net-(P2-Pad1)*%
X145800000Y-48300000D03*
X133300000Y-48300000D03*
%TO.P,SW1,2,2*%
%TO.N,Net-(Q2-Pad1)*%
X145800000Y-53300000D03*
X133300000Y-53300000D03*
%TD*%
D11*
%TO.P,P2,1,1*%
%TO.N,Net-(P2-Pad1)*%
X160870000Y-46250000D03*
%TD*%
D15*
%TO.P,R3,1*%
%TO.N,Net-(P2-Pad1)*%
X155470000Y-45480000D03*
%TO.P,R3,2*%
%TO.N,Net-(P5-Pad1)*%
X155470000Y-48580000D03*
%TD*%
D11*
%TO.P,P1,1,1*%
%TO.N,Net-(P1-Pad1)*%
X118760000Y-50750000D03*
%TD*%
%TO.P,P4,1,1*%
%TO.N,Net-(P4-Pad1)*%
X160720000Y-55430000D03*
%TD*%
D16*
%TO.P,R5,1*%
%TO.N,Net-(P4-Pad1)*%
X156570000Y-55560000D03*
%TO.P,R5,2*%
%TO.N,Net-(P5-Pad1)*%
X156570000Y-52460000D03*
%TD*%
D17*
%TO.N,Net-(Q2-Pad1)*%
X132580000Y-53300000D02*
X133300000Y-53300000D01*
X114800000Y-53000000D02*
X120770000Y-53000000D01*
X120770000Y-53000000D02*
X122940000Y-50830000D01*
X130110000Y-50830000D02*
X132580000Y-53300000D01*
X114332500Y-53467500D02*
X114800000Y-53000000D01*
X114332500Y-53670000D02*
X114332500Y-53467500D01*
X122940000Y-50830000D02*
X130110000Y-50830000D01*
%TO.N,Net-(P2-Pad1)*%
X135300000Y-44980000D02*
X135960000Y-45640000D01*
X116287500Y-46080000D02*
X116287500Y-45822500D01*
X116287500Y-45822500D02*
X117130000Y-44980000D01*
X117130000Y-44980000D02*
X135300000Y-44980000D01*
%TO.N,Net-(Q2-Pad1)*%
X138740000Y-53300000D02*
X139330000Y-53890000D01*
X133300000Y-53300000D02*
X138740000Y-53300000D01*
%TO.N,Net-(P3-Pad1)*%
X120880000Y-55210000D02*
X116797500Y-55210000D01*
X116797500Y-55210000D02*
X116207500Y-54620000D01*
X123680000Y-54590000D02*
X121500000Y-54590000D01*
X121500000Y-54590000D02*
X120880000Y-55210000D01*
%TO.N,Net-(P1-Pad1)*%
X119070000Y-50750000D02*
X121700000Y-48120000D01*
X118760000Y-50750000D02*
X119070000Y-50750000D01*
%TO.N,Net-(R1-Pad2)*%
X126660000Y-46260000D02*
X124800000Y-48120000D01*
X129690000Y-46260000D02*
X126660000Y-46260000D01*
X123720000Y-46180000D02*
X124800000Y-47260000D01*
X124800000Y-47260000D02*
X124800000Y-48120000D01*
X119290000Y-46180000D02*
X123720000Y-46180000D01*
X117490000Y-47980000D02*
X119290000Y-46180000D01*
X116287500Y-47980000D02*
X117490000Y-47980000D01*
X136150000Y-50250000D02*
X138130000Y-48270000D01*
X131740000Y-50250000D02*
X136150000Y-50250000D01*
X130810000Y-49320000D02*
X131740000Y-50250000D01*
X129690000Y-46260000D02*
X130810000Y-47380000D01*
X130810000Y-47380000D02*
X130810000Y-49320000D01*
%TO.N,Net-(Q2-Pad1)*%
X139330000Y-53230000D02*
X139330000Y-53890000D01*
X143600000Y-51100000D02*
X141460000Y-51100000D01*
X145800000Y-53300000D02*
X143600000Y-51100000D01*
X141460000Y-51100000D02*
X139330000Y-53230000D01*
%TO.N,Net-(P2-Pad1)*%
X146970000Y-45480000D02*
X155470000Y-45480000D01*
X145800000Y-46650000D02*
X146970000Y-45480000D01*
X145800000Y-48300000D02*
X145800000Y-46650000D01*
X143140000Y-45640000D02*
X145800000Y-48300000D01*
X135960000Y-45640000D02*
X143140000Y-45640000D01*
X133300000Y-48300000D02*
X135960000Y-45640000D01*
X141260000Y-48300000D02*
X141230000Y-48270000D01*
X145800000Y-48300000D02*
X141260000Y-48300000D01*
%TO.N,Net-(Q2-Pad1)*%
X113290000Y-48040000D02*
X113290000Y-52627500D01*
X113290000Y-52627500D02*
X114332500Y-53670000D01*
X114300000Y-47030000D02*
X113290000Y-48040000D01*
X114412500Y-47030000D02*
X114300000Y-47030000D01*
%TO.N,Net-(P3-Pad1)*%
X116207500Y-54620000D02*
X116237500Y-54590000D01*
%TO.N,Net-(P4-Pad1)*%
X155680000Y-56450000D02*
X156570000Y-55560000D01*
X144990000Y-56450000D02*
X155680000Y-56450000D01*
X142430000Y-53890000D02*
X144990000Y-56450000D01*
X114920000Y-56680000D02*
X139640000Y-56680000D01*
X114332500Y-56092500D02*
X114920000Y-56680000D01*
X139640000Y-56680000D02*
X142430000Y-53890000D01*
X114332500Y-55570000D02*
X114332500Y-56092500D01*
%TO.N,Net-(P5-Pad1)*%
X157760000Y-50870000D02*
X158160000Y-50870000D01*
X155470000Y-48580000D02*
X157760000Y-50870000D01*
X158160000Y-50870000D02*
X156570000Y-52460000D01*
X160870000Y-50870000D02*
X158160000Y-50870000D01*
%TO.N,Net-(P4-Pad1)*%
X160590000Y-55560000D02*
X160720000Y-55430000D01*
X156570000Y-55560000D02*
X160590000Y-55560000D01*
%TO.N,Net-(P2-Pad1)*%
X160760000Y-46250000D02*
X159990000Y-45480000D01*
X159990000Y-45480000D02*
X155470000Y-45480000D01*
X160870000Y-46250000D02*
X160760000Y-46250000D01*
%TD*%
M02*
