%TF.GenerationSoftware,KiCad,Pcbnew,(6.0.7)*%
%TF.CreationDate,2022-11-25T17:42:58-03:00*%
%TF.ProjectId,RD01_2,52443031-5f32-42e6-9b69-6361645f7063,rev?*%
%TF.SameCoordinates,Original*%
%TF.FileFunction,Legend,Top*%
%TF.FilePolarity,Positive*%
%FSLAX46Y46*%
G04 Gerber Fmt 4.6, Leading zero omitted, Abs format (unit mm)*
G04 Created by KiCad (PCBNEW (6.0.7)) date 2022-11-25 17:42:58*
%MOMM*%
%LPD*%
G01*
G04 APERTURE LIST*
%ADD10C,0.150000*%
%ADD11C,0.120000*%
G04 APERTURE END LIST*
D10*
%TO.C,Q1*%
X115254761Y-49977619D02*
X115159523Y-49930000D01*
X115064285Y-49834761D01*
X114921428Y-49691904D01*
X114826190Y-49644285D01*
X114730952Y-49644285D01*
X114778571Y-49882380D02*
X114683333Y-49834761D01*
X114588095Y-49739523D01*
X114540476Y-49549047D01*
X114540476Y-49215714D01*
X114588095Y-49025238D01*
X114683333Y-48930000D01*
X114778571Y-48882380D01*
X114969047Y-48882380D01*
X115064285Y-48930000D01*
X115159523Y-49025238D01*
X115207142Y-49215714D01*
X115207142Y-49549047D01*
X115159523Y-49739523D01*
X115064285Y-49834761D01*
X114969047Y-49882380D01*
X114778571Y-49882380D01*
X116159523Y-49882380D02*
X115588095Y-49882380D01*
X115873809Y-49882380D02*
X115873809Y-48882380D01*
X115778571Y-49025238D01*
X115683333Y-49120476D01*
X115588095Y-49168095D01*
%TO.C,P5*%
X160131904Y-49324380D02*
X160131904Y-48324380D01*
X160512857Y-48324380D01*
X160608095Y-48372000D01*
X160655714Y-48419619D01*
X160703333Y-48514857D01*
X160703333Y-48657714D01*
X160655714Y-48752952D01*
X160608095Y-48800571D01*
X160512857Y-48848190D01*
X160131904Y-48848190D01*
X161608095Y-48324380D02*
X161131904Y-48324380D01*
X161084285Y-48800571D01*
X161131904Y-48752952D01*
X161227142Y-48705333D01*
X161465238Y-48705333D01*
X161560476Y-48752952D01*
X161608095Y-48800571D01*
X161655714Y-48895809D01*
X161655714Y-49133904D01*
X161608095Y-49229142D01*
X161560476Y-49276761D01*
X161465238Y-49324380D01*
X161227142Y-49324380D01*
X161131904Y-49276761D01*
X161084285Y-49229142D01*
%TO.C,Q2*%
X115174761Y-52767619D02*
X115079523Y-52720000D01*
X114984285Y-52624761D01*
X114841428Y-52481904D01*
X114746190Y-52434285D01*
X114650952Y-52434285D01*
X114698571Y-52672380D02*
X114603333Y-52624761D01*
X114508095Y-52529523D01*
X114460476Y-52339047D01*
X114460476Y-52005714D01*
X114508095Y-51815238D01*
X114603333Y-51720000D01*
X114698571Y-51672380D01*
X114889047Y-51672380D01*
X114984285Y-51720000D01*
X115079523Y-51815238D01*
X115127142Y-52005714D01*
X115127142Y-52339047D01*
X115079523Y-52529523D01*
X114984285Y-52624761D01*
X114889047Y-52672380D01*
X114698571Y-52672380D01*
X115508095Y-51767619D02*
X115555714Y-51720000D01*
X115650952Y-51672380D01*
X115889047Y-51672380D01*
X115984285Y-51720000D01*
X116031904Y-51767619D01*
X116079523Y-51862857D01*
X116079523Y-51958095D01*
X116031904Y-52100952D01*
X115460476Y-52672380D01*
X116079523Y-52672380D01*
%TO.C,R1*%
X124623333Y-46412380D02*
X124290000Y-45936190D01*
X124051904Y-46412380D02*
X124051904Y-45412380D01*
X124432857Y-45412380D01*
X124528095Y-45460000D01*
X124575714Y-45507619D01*
X124623333Y-45602857D01*
X124623333Y-45745714D01*
X124575714Y-45840952D01*
X124528095Y-45888571D01*
X124432857Y-45936190D01*
X124051904Y-45936190D01*
X125575714Y-46412380D02*
X125004285Y-46412380D01*
X125290000Y-46412380D02*
X125290000Y-45412380D01*
X125194761Y-45555238D01*
X125099523Y-45650476D01*
X125004285Y-45698095D01*
%TO.C,R2*%
X139513333Y-46902380D02*
X139180000Y-46426190D01*
X138941904Y-46902380D02*
X138941904Y-45902380D01*
X139322857Y-45902380D01*
X139418095Y-45950000D01*
X139465714Y-45997619D01*
X139513333Y-46092857D01*
X139513333Y-46235714D01*
X139465714Y-46330952D01*
X139418095Y-46378571D01*
X139322857Y-46426190D01*
X138941904Y-46426190D01*
X139894285Y-45997619D02*
X139941904Y-45950000D01*
X140037142Y-45902380D01*
X140275238Y-45902380D01*
X140370476Y-45950000D01*
X140418095Y-45997619D01*
X140465714Y-46092857D01*
X140465714Y-46188095D01*
X140418095Y-46330952D01*
X139846666Y-46902380D01*
X140465714Y-46902380D01*
%TO.C,R4*%
X140713333Y-52522380D02*
X140380000Y-52046190D01*
X140141904Y-52522380D02*
X140141904Y-51522380D01*
X140522857Y-51522380D01*
X140618095Y-51570000D01*
X140665714Y-51617619D01*
X140713333Y-51712857D01*
X140713333Y-51855714D01*
X140665714Y-51950952D01*
X140618095Y-51998571D01*
X140522857Y-52046190D01*
X140141904Y-52046190D01*
X141570476Y-51855714D02*
X141570476Y-52522380D01*
X141332380Y-51474761D02*
X141094285Y-52189047D01*
X141713333Y-52189047D01*
%TO.C,P3*%
X122941904Y-53044380D02*
X122941904Y-52044380D01*
X123322857Y-52044380D01*
X123418095Y-52092000D01*
X123465714Y-52139619D01*
X123513333Y-52234857D01*
X123513333Y-52377714D01*
X123465714Y-52472952D01*
X123418095Y-52520571D01*
X123322857Y-52568190D01*
X122941904Y-52568190D01*
X123846666Y-52044380D02*
X124465714Y-52044380D01*
X124132380Y-52425333D01*
X124275238Y-52425333D01*
X124370476Y-52472952D01*
X124418095Y-52520571D01*
X124465714Y-52615809D01*
X124465714Y-52853904D01*
X124418095Y-52949142D01*
X124370476Y-52996761D01*
X124275238Y-53044380D01*
X123989523Y-53044380D01*
X123894285Y-52996761D01*
X123846666Y-52949142D01*
%TO.C,SW1*%
X138266666Y-50924761D02*
X138409523Y-50972380D01*
X138647619Y-50972380D01*
X138742857Y-50924761D01*
X138790476Y-50877142D01*
X138838095Y-50781904D01*
X138838095Y-50686666D01*
X138790476Y-50591428D01*
X138742857Y-50543809D01*
X138647619Y-50496190D01*
X138457142Y-50448571D01*
X138361904Y-50400952D01*
X138314285Y-50353333D01*
X138266666Y-50258095D01*
X138266666Y-50162857D01*
X138314285Y-50067619D01*
X138361904Y-50020000D01*
X138457142Y-49972380D01*
X138695238Y-49972380D01*
X138838095Y-50020000D01*
X139171428Y-49972380D02*
X139409523Y-50972380D01*
X139600000Y-50258095D01*
X139790476Y-50972380D01*
X140028571Y-49972380D01*
X140933333Y-50972380D02*
X140361904Y-50972380D01*
X140647619Y-50972380D02*
X140647619Y-49972380D01*
X140552380Y-50115238D01*
X140457142Y-50210476D01*
X140361904Y-50258095D01*
%TO.C,P2*%
X157671904Y-47172380D02*
X157671904Y-46172380D01*
X158052857Y-46172380D01*
X158148095Y-46220000D01*
X158195714Y-46267619D01*
X158243333Y-46362857D01*
X158243333Y-46505714D01*
X158195714Y-46600952D01*
X158148095Y-46648571D01*
X158052857Y-46696190D01*
X157671904Y-46696190D01*
X158624285Y-46267619D02*
X158671904Y-46220000D01*
X158767142Y-46172380D01*
X159005238Y-46172380D01*
X159100476Y-46220000D01*
X159148095Y-46267619D01*
X159195714Y-46362857D01*
X159195714Y-46458095D01*
X159148095Y-46600952D01*
X158576666Y-47172380D01*
X159195714Y-47172380D01*
%TO.C,R3*%
X153882380Y-47266666D02*
X153406190Y-47600000D01*
X153882380Y-47838095D02*
X152882380Y-47838095D01*
X152882380Y-47457142D01*
X152930000Y-47361904D01*
X152977619Y-47314285D01*
X153072857Y-47266666D01*
X153215714Y-47266666D01*
X153310952Y-47314285D01*
X153358571Y-47361904D01*
X153406190Y-47457142D01*
X153406190Y-47838095D01*
X152882380Y-46933333D02*
X152882380Y-46314285D01*
X153263333Y-46647619D01*
X153263333Y-46504761D01*
X153310952Y-46409523D01*
X153358571Y-46361904D01*
X153453809Y-46314285D01*
X153691904Y-46314285D01*
X153787142Y-46361904D01*
X153834761Y-46409523D01*
X153882380Y-46504761D01*
X153882380Y-46790476D01*
X153834761Y-46885714D01*
X153787142Y-46933333D01*
%TO.C,P1*%
X118021904Y-49204380D02*
X118021904Y-48204380D01*
X118402857Y-48204380D01*
X118498095Y-48252000D01*
X118545714Y-48299619D01*
X118593333Y-48394857D01*
X118593333Y-48537714D01*
X118545714Y-48632952D01*
X118498095Y-48680571D01*
X118402857Y-48728190D01*
X118021904Y-48728190D01*
X119545714Y-49204380D02*
X118974285Y-49204380D01*
X119260000Y-49204380D02*
X119260000Y-48204380D01*
X119164761Y-48347238D01*
X119069523Y-48442476D01*
X118974285Y-48490095D01*
%TO.C,P4*%
X159981904Y-53884380D02*
X159981904Y-52884380D01*
X160362857Y-52884380D01*
X160458095Y-52932000D01*
X160505714Y-52979619D01*
X160553333Y-53074857D01*
X160553333Y-53217714D01*
X160505714Y-53312952D01*
X160458095Y-53360571D01*
X160362857Y-53408190D01*
X159981904Y-53408190D01*
X161410476Y-53217714D02*
X161410476Y-53884380D01*
X161172380Y-52836761D02*
X160934285Y-53551047D01*
X161553333Y-53551047D01*
%TO.C,R5*%
X155202380Y-54176666D02*
X154726190Y-54510000D01*
X155202380Y-54748095D02*
X154202380Y-54748095D01*
X154202380Y-54367142D01*
X154250000Y-54271904D01*
X154297619Y-54224285D01*
X154392857Y-54176666D01*
X154535714Y-54176666D01*
X154630952Y-54224285D01*
X154678571Y-54271904D01*
X154726190Y-54367142D01*
X154726190Y-54748095D01*
X154202380Y-53271904D02*
X154202380Y-53748095D01*
X154678571Y-53795714D01*
X154630952Y-53748095D01*
X154583333Y-53652857D01*
X154583333Y-53414761D01*
X154630952Y-53319523D01*
X154678571Y-53271904D01*
X154773809Y-53224285D01*
X155011904Y-53224285D01*
X155107142Y-53271904D01*
X155154761Y-53319523D01*
X155202380Y-53414761D01*
X155202380Y-53652857D01*
X155154761Y-53748095D01*
X155107142Y-53795714D01*
D11*
%TO.C,Q1*%
X115350000Y-45470000D02*
X116000000Y-45470000D01*
X115350000Y-48590000D02*
X114700000Y-48590000D01*
X115350000Y-48590000D02*
X117025000Y-48590000D01*
X115350000Y-45470000D02*
X114700000Y-45470000D01*
%TO.C,P5*%
X162070000Y-49670000D02*
X162070000Y-52070000D01*
X162070000Y-52070000D02*
X159670000Y-52070000D01*
X159670000Y-52070000D02*
X159670000Y-49670000D01*
X159670000Y-49670000D02*
X162070000Y-49670000D01*
%TO.C,Q2*%
X115270000Y-53060000D02*
X115920000Y-53060000D01*
X115270000Y-56180000D02*
X114620000Y-56180000D01*
X115270000Y-53060000D02*
X113595000Y-53060000D01*
X115270000Y-56180000D02*
X115920000Y-56180000D01*
%TO.C,R1*%
X122522936Y-49030000D02*
X123977064Y-49030000D01*
X122522936Y-47210000D02*
X123977064Y-47210000D01*
%TO.C,R2*%
X138952936Y-47360000D02*
X140407064Y-47360000D01*
X138952936Y-49180000D02*
X140407064Y-49180000D01*
%TO.C,R4*%
X140152936Y-52980000D02*
X141607064Y-52980000D01*
X140152936Y-54800000D02*
X141607064Y-54800000D01*
%TO.C,P3*%
X124880000Y-53390000D02*
X124880000Y-55790000D01*
X124880000Y-55790000D02*
X122480000Y-55790000D01*
X122480000Y-55790000D02*
X122480000Y-53390000D01*
X122480000Y-53390000D02*
X124880000Y-53390000D01*
%TO.C,SW1*%
X133400000Y-56950000D02*
X133400000Y-54230000D01*
X145700000Y-56950000D02*
X133400000Y-56950000D01*
X133400000Y-47370000D02*
X133400000Y-44650000D01*
X145700000Y-54230000D02*
X145700000Y-56950000D01*
X145700000Y-49230000D02*
X145700000Y-52370000D01*
X133400000Y-44650000D02*
X145700000Y-44650000D01*
X145700000Y-44650000D02*
X145700000Y-47370000D01*
X133400000Y-52370000D02*
X133400000Y-49230000D01*
X144229050Y-50840000D02*
G75*
G03*
X144229050Y-50840000I-4579050J0D01*
G01*
%TO.C,P2*%
X162070000Y-45050000D02*
X162070000Y-47450000D01*
X159670000Y-45050000D02*
X162070000Y-45050000D01*
X159670000Y-47450000D02*
X159670000Y-45050000D01*
X162070000Y-47450000D02*
X159670000Y-47450000D01*
%TO.C,R3*%
X154560000Y-46302936D02*
X154560000Y-47757064D01*
X156380000Y-46302936D02*
X156380000Y-47757064D01*
%TO.C,P1*%
X119960000Y-51950000D02*
X117560000Y-51950000D01*
X119960000Y-49550000D02*
X119960000Y-51950000D01*
X117560000Y-51950000D02*
X117560000Y-49550000D01*
X117560000Y-49550000D02*
X119960000Y-49550000D01*
%TO.C,P4*%
X159520000Y-56630000D02*
X159520000Y-54230000D01*
X159520000Y-54230000D02*
X161920000Y-54230000D01*
X161920000Y-56630000D02*
X159520000Y-56630000D01*
X161920000Y-54230000D02*
X161920000Y-56630000D01*
%TO.C,R5*%
X155660000Y-54737064D02*
X155660000Y-53282936D01*
X157480000Y-54737064D02*
X157480000Y-53282936D01*
%TD*%
M02*
